<svg version="1" xmlns="http://www.w3.org/2000/svg" width="933.333" height="933.333" viewBox="0 0 700.000000 700.000000"><path d="M378.7 182.5c-.1.1-6.3.5-13.7.9-7.4.3-14.4.8-15.5 1-1.1.2-4.5.7-7.5 1.1-59.7 7.4-95.5 29.5-108 66.5-3 8.9-3.5 13.4-3.4 30 .1 12 .5 15.8 2.3 22 2.5 8.3 7 17.8 10.8 22.8 9.9 13.1 30.9 13.8 45.2 1.6 9.9-8.5 12-18.8 6.3-30.1-9-17.6-8.7-29 1.1-38.7 9.6-9.6 27.6-14.9 58.7-17.3 9.7-.8 50.1-.7 55.5 0 1.7.3 4 .5 5.3.6 1.9.1 2.2.6 1.8 2.8-.2 1.6-.7 5.5-1.1 8.8-.3 3.3-.8 7.1-1 8.5-.2 1.4-.6 5-.9 8-.3 3-.8 7.1-1.1 9-.2 1.9-.7 5.7-1 8.5-.6 5.4-1.3 11-2 16.5-.3 1.9-.7 5.7-1 8.5-1 9.6-3.3 21.7-4.1 22.4-.5.4-3.6 1.8-6.9 3-33.1 12.9-64.9 31.1-90.5 51.6-6.2 5-24 23.6-28.1 29.5-15.2 21.6-22.2 43.9-21.5 68 .4 13.2 1.6 18.6 6.1 28.6 11.1 24.4 33.3 38 63.5 38.8 30.4.8 57.2-12.1 78.2-37.7 2.4-2.8 4.6-5.4 4.9-5.7.3-.3 3.3-4.8 6.7-10 14.9-22.6 27.7-52.9 38.2-89.9 2.9-10.5 10.4-41.8 11.4-47.6.2-1.7 1.1-6.6 2-11 1.8-9.5 5.2-29.1 6-35.6.4-2.5.8-5.7 1-7 .3-1.3.7-4.5 1-7 .4-2.5.9-5.7 1.1-7 .5-3.2 5.3-38.5 5.8-43s1.3-5.9 3.3-5.9c2.8 0 9.3-4 11.8-7.3 3.9-5.1 5.8-11.4 5.8-19.7.2-15.2-7.6-24-25.3-28.9-9.2-2.6-27.2-6-35.4-6.7-3.3-.3-7.1-.7-8.5-.9-6.6-1.2-56.1-2.8-57.3-2zm42.2 14.9c7.4.4 13.7.8 14 1 .3.2 4 .7 8 1 4.1.4 7.8.9 8.1 1.1.4.2 2.9.7 5.6 1.1 9.9 1.3 23.9 4.9 27.7 7.2 4.9 2.8 7.1 6.6 7 11.8-.4 10.8-4 14.4-14.3 14.4-4 0-5 .3-5.1 1.7-.1 1-.3 2.7-.4 3.8-.1 1.1-.5 4.7-.8 8-.4 3.3-.9 7.6-1.1 9.5-.3 1.9-1 7.3-1.6 12-.6 4.7-1.3 9.6-1.5 11-.2 1.4-.6 4.1-.9 6-1.2 8.6-2.8 19.7-3.2 22.1-.2 1.5-.6 4.7-.9 7-.3 2.4-.8 5.7-1.1 7.4-1.3 8-2.6 15.7-3.9 22.5-.8 4.1-1.7 8.6-1.9 10-1 6-7 32.4-9.7 42.7-18.7 71.6-46.1 117.8-79.5 134.6-25.6 12.8-59.6 10-76.3-6.3-15.5-15.2-20.1-34.8-14.6-62 6.5-32.2 35.4-63.9 82.5-90.7 16.2-9.2 39.9-20.1 55.4-25.5 6.3-2.2 6.5-2.4 7.1-6.3.4-2.2.9-5.4 1.1-7 .3-1.7.7-4.6 1-6.5.2-1.9.9-6.2 1.4-9.5.5-3.3 1.2-8.5 1.5-11.5.3-3 1-8.9 1.5-13s1.2-10 1.5-13c.4-3 .8-6.6 1-8 .2-1.4.6-5.2 1-8.5.3-3.3.7-7.1 1-8.5.4-2.7 1.1-8 2-17 .3-3 .8-6.3 1.1-7.3.6-2-.3-2.4-6.6-3.2-12.3-1.4-25.4-1.9-45-1.9-25.4 0-39.5.9-52.6 3.5-2.8.5-6.4 1.2-8 1.5-6.5 1.1-19.3 5.7-24.9 8.9-21.9 12.5-27.7 34-15.9 59 4.6 9.9 4.6 10.9.7 15.6-5.7 6.7-17 9-23.3 4.6-3.9-2.7-8.2-10.3-11.2-19.9-1.8-6-2.2-9.7-2.3-20.8 0-15 1.4-22.1 6.6-32.4 8-16.2 20.3-26.3 45.4-37.1 6.2-2.7 25.1-7.7 34-9 2.2-.4 5.1-.8 6.5-1.1 1.4-.2 4.9-.7 7.9-1 3-.3 6.3-.7 7.4-1 1-.2 7.8-.6 15.1-1 7.2-.3 13.2-.7 13.3-.8.4-.3 28.5.2 40.2.8z"/><path d="M401.5 377.1c-15.8 7.2-17.6 8.1-28.4 14.2-34.7 19.7-57 44-63.6 69.5-2.4 8.8-2.7 11.1-2.7 20.2-.1 18.9 8.4 31 23.8 33.7 27.2 4.8 53.4-25.6 69.8-80.7 2.1-7.3 7.2-26.5 8.1-31 4.9-23.7 6.5-31.4 6.2-31.6-.1-.1-6 2.4-13.2 5.7zm-6.8 22.1c-1 6-6.7 27.1-10.9 39.8-7.9 24.1-15.4 38.1-27.1 50.7-7.8 8.3-14.7 11.7-22.2 11.1-9.4-.8-13.5-6.7-13.5-19.3 0-19.7 6.8-34.2 24-51.6 9.3-9.3 26.2-22.1 34.5-26.1 1.1-.5 4.7-2.5 8-4.3 3.3-1.8 6.4-3.4 6.8-3.4.5-.1.6 1.4.4 3.1z"/></svg>